<svg width="127" height="127" viewBox="0 0 127 127" fill="none" xmlns="http://www.w3.org/2000/svg">
<circle cx="63.5" cy="63.5" r="59.5" fill="#FDBA74" stroke="#F97316" stroke-width="8"/>
<path d="M40.6705 99V29.1818H65.5568C70.9659 29.1818 75.4545 30.1136 79.0227 31.9773C82.6136 33.8409 85.2955 36.4205 87.0682 39.7159C88.8409 42.9886 89.7273 46.7727 89.7273 51.0682C89.7273 55.3409 88.8295 59.1023 87.0341 62.3523C85.2614 65.5795 82.5795 68.0909 78.9886 69.8864C75.4205 71.6818 70.9318 72.5795 65.5227 72.5795H46.6705V63.5114H64.5682C67.9773 63.5114 70.75 63.0227 72.8864 62.0455C75.0455 61.0682 76.625 59.6477 77.625 57.7841C78.625 55.9205 79.125 53.6818 79.125 51.0682C79.125 48.4318 78.6136 46.1477 77.5909 44.2159C76.5909 42.2841 75.0114 40.8068 72.8523 39.7841C70.7159 38.7386 67.9091 38.2159 64.4318 38.2159H51.2045V99H40.6705ZM75.1364 67.5L92.3864 99H80.3864L63.4773 67.5H75.1364Z" fill="#FB923C"/>
</svg>
