<svg width="456" height="565" viewBox="0 0 456 565" fill="none" xmlns="http://www.w3.org/2000/svg">
<path d="M301.997 363.202H297.024V367.537H302.065C304.048 367.537 305.19 366.765 305.19 365.386V365.319C305.19 364.042 304.181 363.202 301.997 363.202Z" fill="#231F20"/>
<path d="M304.214 356.581V356.514C304.214 355.237 303.209 354.498 301.258 354.498H297.024V358.63H301.124C303.105 358.63 304.214 357.96 304.214 356.581Z" fill="#231F20"/>
<path d="M312.489 308.984H302.229V318.027H312.402C316.837 318.027 319.098 316.2 319.098 313.592V313.418C319.098 310.81 316.925 308.984 312.489 308.984Z" fill="#231F20"/>
<path d="M87.0543 382.698H83.4556V395.463H87.0543C90.8676 395.463 93.4369 392.893 93.4369 389.141V389.081C93.4369 385.33 90.8676 382.698 87.0543 382.698Z" fill="#231F20"/>
<path d="M101.785 354.733H98.7278V360.951H101.82C104.138 360.951 105.549 359.74 105.549 357.892V357.825C105.549 355.808 104.138 354.733 101.785 354.733Z" fill="#231F20"/>
<path d="M317.533 292.288V292.115C317.533 289.419 315.36 287.94 311.012 287.94H302.229V296.461H311.098C315.446 296.461 317.533 294.984 317.533 292.288Z" fill="#231F20"/>
<path d="M184.229 354.901H179.962V360.546H184.264C186.482 360.546 187.76 359.472 187.76 357.757V357.69C187.76 355.842 186.414 354.901 184.229 354.901Z" fill="#231F20"/>
<path d="M259.448 355.036H256.793V367H259.448C263.346 367 265.933 364.848 265.933 361.052V360.984C265.933 357.22 263.346 355.036 259.448 355.036Z" fill="#231F20"/>
<path d="M135.817 382.699H132.216V389.173H135.906C138.236 389.173 139.597 387.781 139.597 385.965V385.905C139.597 383.819 138.145 382.699 135.817 382.699Z" fill="#231F20"/>
<path d="M127.094 354.733H124.036V360.951H127.126C129.446 360.951 130.858 359.74 130.858 357.892V357.825C130.858 355.808 129.446 354.733 127.094 354.733Z" fill="#231F20"/>
<path d="M154.654 354.666C151.092 354.666 148.705 357.555 148.705 360.95V361.017C148.705 364.411 151.157 367.369 154.72 367.369C158.317 367.369 160.704 364.479 160.704 361.083V361.017C160.704 357.623 158.25 354.666 154.654 354.666Z" fill="#231F20"/>
<path d="M207.445 382.698H203.845V395.463H207.445C211.257 395.463 213.828 392.893 213.828 389.141V389.081C213.828 385.33 211.257 382.698 207.445 382.698Z" fill="#231F20"/>
<path d="M363.941 363.505H369.216L366.596 356.816L363.941 363.505Z" fill="#231F20"/>
<path d="M358.356 382.699H353.728V388.779H358.446C360.716 388.779 362.017 387.569 362.017 385.784V385.724C362.017 383.728 360.625 382.699 358.356 382.699Z" fill="#231F20"/>
<path d="M136.032 152.938C135.572 152.094 134.812 151.464 134.369 150.601C133.885 149.793 133.975 148.709 133.539 147.89C133.14 147.072 132.381 146.413 131.988 145.596C131.549 144.822 130.905 144.102 130.48 143.318C130.088 142.517 130.2 141.417 129.803 140.658C129.28 139.657 128.663 138.742 128.145 137.754C127.653 136.804 126.857 135.982 126.367 135.04C125.852 134.081 125.327 133.192 124.811 132.261C124.351 131.32 124.345 130.165 123.815 129.232C123.333 128.32 122.324 127.721 121.868 126.826C121.369 125.91 121.003 124.985 120.517 124.098C120.08 123.225 119.865 122.228 119.433 121.353C119.005 120.498 118.603 119.614 118.177 118.784C117.744 117.942 117.259 117.132 116.823 116.312C116.309 115.318 115.755 114.378 115.267 113.422C114.772 112.477 114.067 112.022 113.551 111.117C113.488 111.846 113.928 112.19 113.863 112.95C113.744 113.734 112.891 114.438 112.8 115.241C112.687 116.029 113.261 116.932 113.12 117.734C113.035 118.529 112.94 119.334 112.883 120.158C112.764 120.95 112.065 121.697 111.952 122.525C111.84 123.497 111.525 124.458 111.449 125.465C111.293 126.284 111.757 127.182 111.665 128.02C111.543 128.838 111.495 129.694 111.375 130.516C111.313 131.353 111.345 132.209 111.263 133.028C111.143 133.849 110.899 134.677 110.755 135.54C110.671 136.366 110.236 137.173 110.124 137.994C109.976 138.832 109.675 139.636 109.557 140.494C109.46 141.313 109.712 142.209 109.593 143.053C109.501 143.904 108.873 144.664 108.752 145.49C108.665 146.362 109.343 147.305 109.248 148.134C109.133 148.976 108.643 149.754 108.493 150.606C108.388 151.43 108.688 152.329 108.536 153.162C108.479 154.017 108.483 154.853 108.369 155.708C108.273 156.526 108.064 157.366 107.951 158.204C107.86 159.176 107.104 160.093 106.956 161.098C106.808 162.104 107.325 163.17 107.207 164.168C107.093 165.169 106.579 166.109 106.459 167.085C106.34 168.065 105.793 168.994 105.681 169.98C105.529 170.969 106.02 172.016 105.9 172.977C105.752 173.965 105.585 174.909 105.431 175.892C105.348 176.83 105.157 177.806 105.012 178.75C104.92 179.69 104.713 180.636 104.6 181.594C104.508 182.538 104.208 183.453 104.124 184.398C104.003 185.242 104.217 186.118 104.189 186.97C104.22 186.821 104.313 186.641 104.4 186.516C104.944 185.924 105.796 185.58 106.384 184.984C106.895 184.388 107.281 183.628 107.864 183.05C108.525 182.333 110.023 182.382 110.717 181.668C111.264 181.081 111.501 180.138 112.079 179.562C112.656 178.994 113.267 178.428 113.867 177.834C114.413 177.264 114.476 176.144 115.016 175.542C115.62 174.964 116.815 175.021 117.42 174.444C118.145 173.766 118.992 173.2 119.699 172.542C120.268 171.96 120.572 171.017 121.177 170.449C121.721 169.892 122.877 169.913 123.513 169.357C124.125 168.797 124.18 167.654 124.789 167.102C125.391 166.542 126.425 166.426 127.039 165.894C127.796 165.225 128.123 164.086 128.855 163.437C129.521 162.872 130.611 162.91 131.257 162.348C131.863 161.809 132.439 161.185 133.072 160.645C133.713 160.104 134.404 159.628 135.021 159.07C135.775 158.433 136.105 157.276 136.892 156.614C137.195 156.356 137.497 156.069 137.771 155.761C137.743 155.593 137.719 155.44 137.621 155.288C137.188 154.452 136.457 153.788 136.032 152.938Z" fill="#231F20"/>
<path d="M409.913 373.213C404.446 373.213 400.406 368.919 400.406 363.773V363.705C400.406 358.56 404.406 354.227 410.153 354.227C413.886 354.227 416.366 355.84 417.913 358.293L413.58 361.519C412.713 360.305 411.74 359.613 410.193 359.613C408.14 359.613 406.62 361.425 406.62 363.639V363.705C406.62 366.053 408.1 367.84 410.26 367.84C411.766 367.84 412.74 367.132 413.753 365.96L418.02 369.053C416.34 371.532 413.913 373.213 409.913 373.213ZM417.46 399.667H413.5L403.246 386.213V399.667H398.646V378.493H402.94L412.86 391.532V378.493H417.46V399.667ZM396.541 361.013H396.006C392.673 361.013 390.793 362.932 390.793 367.132V372.787H384.406V354.599H390.793V358.265C391.833 355.773 393.513 354.16 396.541 354.293V361.013ZM391.473 390.44C391.473 396.852 387.874 400 382.193 400C376.5 400 373.02 396.827 373.02 390.599V378.493H377.686V390.479C377.686 393.919 379.406 395.705 382.246 395.705C385.1 395.705 386.82 393.985 386.82 390.627V378.493H391.473V390.44ZM371.1 368.585H362.02L360.34 372.787H353.486L363.5 349.092H369.793L379.806 372.787H372.806L371.1 368.585ZM361.926 399.667L357.393 392.893H353.726V399.667H349.073V378.493H358.753C363.74 378.493 366.74 381.12 366.74 385.479V385.547C366.74 388.96 364.886 391.107 362.193 392.107L367.366 399.667H361.926ZM344.882 200.952C344.03 201.008 343.305 201.261 342.486 201.307C341.726 201.339 340.902 201.453 340.106 201.501C339.314 201.504 338.493 201.34 337.709 201.325C336.952 201.311 336.148 201.175 335.352 201.121C334.381 201.079 333.406 201.095 332.493 201.028C331.516 200.917 330.516 201.14 329.58 201.011C328.63 200.856 327.745 200.147 326.796 199.965C325.822 199.772 324.821 199.867 323.9 199.644C322.962 199.433 322.014 199.327 321.041 199.075C320.093 198.787 319.15 198.595 318.202 198.296C317.322 197.981 316.436 197.431 315.52 197.103C314.602 196.759 313.752 196.239 312.866 195.853C311.95 195.46 311.07 195.021 310.21 194.611C309.333 194.188 308.329 194 307.41 193.528C306.554 193.091 305.765 192.477 304.909 191.968C304.089 191.481 303.233 190.969 302.409 190.427C301.518 189.917 300.788 189.217 299.99 188.636C299.51 188.295 298.952 187.931 298.434 187.549C297.832 187.095 296.937 186.957 296.301 186.459C295.718 185.957 295.444 185.063 294.83 184.56C294.101 183.941 293.241 183.523 292.538 182.896C291.837 182.247 291.013 181.728 290.37 181.079C289.698 180.412 289.214 179.589 288.565 178.889C287.926 178.225 287.077 177.741 286.46 177.028C285.849 176.327 285.638 175.313 285.082 174.585C284.473 173.856 283.55 173.391 283.006 172.643C282.453 171.887 281.993 171.053 281.532 170.291C281.012 169.52 280.646 168.663 280.15 167.859C279.693 167.069 279.082 166.324 278.65 165.505C278.217 164.685 277.856 163.839 277.454 162.996C277.026 162.168 276.841 161.249 276.44 160.409C276.074 159.555 275.617 158.729 275.308 157.881C274.965 156.996 274.568 156.161 274.293 155.279C273.978 154.4 273.577 153.528 273.336 152.647C273.086 151.74 273.296 150.732 273.078 149.801C272.864 148.903 272.774 147.979 272.61 147.047C272.488 146.349 272.093 145.684 272.025 144.951C271.902 144.189 271.9 143.399 271.806 142.607C271.709 141.831 271.765 141.025 271.704 140.229C271.641 139.443 271.697 138.683 271.66 137.891C271.657 137.08 271.286 136.292 271.353 135.519C271.349 134.721 271.53 133.945 271.588 133.172C271.613 132.381 271.854 131.599 271.949 130.823C272.032 129.867 271.6 128.881 271.713 127.92C271.836 126.976 272.256 126.071 272.469 125.143C272.648 124.199 272.976 123.299 273.185 122.371C273.4 121.443 273.354 120.435 273.634 119.539C273.877 118.615 274.42 117.767 274.752 116.849C275.017 115.92 275.013 114.919 275.377 114.02C275.669 113.109 275.949 112.145 276.281 111.245C276.665 110.372 277.49 109.672 277.974 108.789V108.755C277.428 108.757 276.941 108.781 276.43 108.917C275.541 109.223 274.996 110.521 274.121 110.811C273.204 111.12 272.138 110.865 271.258 111.159C270.377 111.485 269.341 111.423 268.452 111.735C267.61 112.04 266.876 112.861 266.028 113.171C265.146 113.495 264.418 114.229 263.533 114.531C262.684 114.857 261.493 114.424 260.644 114.744C259.725 115.071 258.822 115.165 257.912 115.504C257.062 115.831 256.084 115.979 255.233 116.323C254.381 116.655 253.597 117.244 252.74 117.579C251.889 117.948 250.921 118.103 250.096 118.475C249.249 118.808 248.821 120.256 247.942 120.625C247.092 120.993 246.117 121.015 245.258 121.368C244.412 121.747 243.225 121.393 242.372 121.755C241.549 122.113 240.916 122.965 240.064 123.339C239.182 123.708 238.484 124.404 237.66 124.776C236.818 125.163 235.966 125.451 235.085 125.817C234.237 126.208 233.164 126.071 232.342 126.441C231.529 126.825 231.105 128.133 230.284 128.548C229.406 128.935 228.093 128.225 227.242 128.607C226.422 129.011 225.661 129.511 224.809 129.911C223.989 130.325 223.352 131.056 222.472 131.459C221.713 131.887 221.046 132.708 220.284 133.108C219.974 133.261 219.706 133.429 219.401 133.603C219.464 133.844 219.5 134.132 219.556 134.547C219.773 135.817 219.81 135.817 220.025 137.076C220.305 138.468 220.638 138.388 220.92 139.761C221.165 141.251 221.141 141.251 221.385 142.711C221.665 144.111 221.608 144.111 221.822 145.509C222.104 146.984 221.704 147.059 221.988 148.572C222.238 149.949 222.304 149.936 222.548 151.349C222.826 152.692 222.641 152.723 222.866 154.075C223.109 155.507 223.569 155.431 223.85 156.859C224.066 158.224 223.789 158.295 224.072 159.659C224.321 161.147 224.134 161.168 224.385 162.656C224.694 164.044 224.905 164.011 225.193 165.445C225.408 166.779 225.198 166.824 225.413 168.179C225.725 169.621 225.78 169.605 226.033 171.051C226.284 172.467 226.557 172.437 226.809 173.823C227.021 175.195 227.241 175.14 227.486 176.483C227.733 177.953 227.708 177.955 227.952 179.389C228.233 180.813 227.897 180.849 228.177 182.245C228.425 183.588 228.765 183.525 229.008 184.895C229.293 186.349 228.894 186.435 229.144 187.863C229.393 189.291 229.689 189.211 229.945 190.627C230.19 191.984 229.984 192.029 230.234 193.396C230.477 194.841 230.421 194.857 230.665 196.321C230.942 197.747 231.045 197.731 231.285 199.129C231.568 200.517 231.385 200.547 231.636 201.929C231.917 203.393 232.212 203.348 232.464 204.807C232.714 206.237 232.833 206.219 233.082 207.652C233.244 208.428 233.306 209.281 233.278 210.057C233.282 211.003 232.856 211.928 232.676 212.817C232.442 213.724 231.922 214.507 231.534 215.344C231.045 216.317 230.902 217.535 230.21 218.38C229.596 219.055 228.562 219.385 227.808 219.96C227.048 220.524 226.253 221.06 225.409 221.441C224.528 221.824 223.648 222.427 222.7 222.612C221.876 222.749 221.057 222.445 220.289 222.44C219.321 222.443 218.409 222.503 217.492 222.264C216.577 222.068 215.666 221.753 214.845 221.36C213.833 220.889 213.133 220.076 212.306 219.377C211.576 218.753 210.873 218.168 210.286 217.424C209.71 216.645 209.376 215.808 209.004 214.912C208.6 214.017 207.996 213.199 207.806 212.193C207.71 211.584 207.804 211.568 207.708 210.943C207.457 209.684 207.457 209.684 207.206 208.412C206.984 207.095 206.842 207.141 206.617 205.836C206.402 204.741 206.71 204.696 206.514 203.613C206.24 202.164 206.302 202.164 205.99 200.719C205.774 199.503 205.472 199.569 205.257 198.301C205.005 196.98 205.368 196.913 205.153 195.596C204.873 194.181 204.841 194.183 204.62 192.752C204.406 191.459 204.101 191.52 203.88 190.243C203.6 188.877 203.813 188.809 203.594 187.441C203.342 185.963 203.342 185.952 203.132 184.473C202.818 183.103 202.94 183.091 202.725 181.751C202.504 180.457 202.565 180.441 202.31 179.197C202.074 177.795 201.46 177.909 201.244 176.555C200.933 175.065 201.448 174.997 201.142 173.507C200.886 172.125 200.922 172.125 200.701 170.725C200.42 169.237 200.057 169.309 199.806 167.819C199.526 166.419 199.868 166.355 199.614 164.947C199.362 163.6 199.06 163.671 198.81 162.331C198.564 160.885 198.564 160.885 198.256 159.452C198.033 158.068 198.46 157.995 198.21 156.621C197.966 155.133 197.746 155.193 197.437 153.716C197.186 152.305 197.317 152.273 197.064 150.861C196.784 149.505 196.452 149.585 196.17 148.211C196.048 147.24 196.046 146.883 195.976 146.345C195.254 146.587 194.277 146.533 193.637 146.909C192.848 147.389 192.061 147.86 191.297 148.319C190.574 148.809 189.662 149.073 188.926 149.564C188.134 150.035 187.929 151.38 187.17 151.855C186.384 152.348 185.257 152.212 184.526 152.709C183.797 153.172 182.909 153.56 182.224 154.065C181.422 154.555 181.189 155.729 180.401 156.216C179.665 156.725 178.944 157.209 178.178 157.687C177.478 158.221 176.757 158.776 176.037 159.293C175.3 159.788 174.26 159.816 173.5 160.341C172.808 160.845 172.505 161.957 171.752 162.464C171.378 162.753 170.834 162.767 170.256 162.864C170.29 162.909 170.322 162.971 170.412 163.032C171.056 164.325 170.63 164.583 171.272 165.875C171.917 167.107 172.036 167.075 172.656 168.321C173.326 169.551 173.326 169.551 173.966 170.795C174.616 171.981 174.401 172.091 175.044 173.291C175.752 174.576 175.604 174.624 176.27 175.905C176.944 177.163 177.648 176.78 178.293 178.043C178.934 179.271 178.725 179.396 179.337 180.616C180.041 181.828 179.86 181.901 180.469 183.107C181.146 184.377 181.266 184.347 181.946 185.612C182.597 186.869 182.597 186.853 183.268 188.103C183.937 189.315 183.577 189.544 184.217 190.743C184.866 191.956 185.281 191.729 185.9 192.941C186.577 194.241 186.365 194.34 187.065 195.624C187.713 196.883 187.924 196.759 188.565 198.031C189.242 199.264 189.184 199.293 189.825 200.524C190.468 201.737 190.254 201.852 190.929 203.064C191.601 204.351 191.245 204.555 191.924 205.817C192.618 207.093 193.049 206.849 193.697 208.125C194.368 209.369 194.585 209.256 195.25 210.489C195.62 211.203 195.958 212.001 196.176 212.74C196.424 213.635 196.613 214.643 196.738 215.575C196.796 216.485 196.32 217.428 196.198 218.341C196.016 219.44 195.561 220.373 195.109 221.38C194.75 222.244 194.297 222.961 193.722 223.74C193.176 224.501 192.689 225.281 191.956 225.907C191.265 226.541 190.446 227.029 189.594 227.503C188.861 227.887 188.225 228.451 187.5 228.667C187.402 228.7 187.258 228.7 187.164 228.747L184.609 228.771C183.729 228.864 182.816 229.411 181.933 229.295C180.834 229.131 179.884 228.377 178.877 227.952C178.058 227.591 177.138 227.353 176.372 226.789C175.589 226.245 174.64 225.763 174.025 225.033C173.386 224.321 173.413 223.132 172.95 222.236C172.737 221.795 172.13 222.285 171.821 221.68C171.55 221.208 171.816 220.248 171.414 219.441C171.136 218.969 170.714 218.609 170.438 218.048C170.04 217.396 169.549 216.723 169.098 215.964C168.754 215.251 168.657 214.34 168.236 213.535C167.829 212.851 167.277 212.199 166.878 211.4C166.489 210.684 165.842 210.072 165.44 209.288C165.049 208.575 164.553 207.845 164.152 207.076C163.81 206.335 163.665 205.469 163.232 204.689C162.865 203.965 162.652 203.129 162.254 202.371C161.853 201.643 160.934 201.187 160.568 200.409C160.17 199.697 160.166 198.751 159.74 198.021C159.368 197.291 159.061 196.517 158.69 195.795C158.297 195.063 157.953 194.288 157.556 193.56C157.216 192.845 156.426 192.323 156.032 191.601C155.661 190.881 155.477 190.035 155.104 189.32C154.733 188.608 154.274 187.937 153.912 187.227C153.542 186.507 152.836 185.955 152.5 185.215C152.012 184.296 151.97 183.136 151.482 182.18C150.965 181.269 150.837 180.141 150.321 179.199C150.217 179.003 150.13 178.824 150.044 178.624C149.882 178.703 149.705 178.825 149.556 178.925C148.796 179.585 148.437 180.651 147.645 181.34C146.882 181.983 145.645 182.137 144.944 182.795C144.188 183.487 143.852 184.675 143.156 185.364C142.366 186.011 141.609 186.677 140.91 187.367C140.153 188.037 139.149 188.437 138.421 189.129C137.694 189.831 136.656 190.184 135.953 190.868C135.232 191.576 134.9 192.671 134.173 193.36C133.478 194.076 132.633 194.615 131.932 195.323C131.228 196.016 130.529 196.733 129.806 197.439C129.168 198.155 127.95 198.375 127.257 199.091C126.553 199.808 126.224 200.836 125.526 201.556C124.862 202.272 124.868 203.611 124.202 204.328C123.498 205.044 122.469 205.417 121.832 206.163C121.161 206.879 120.378 207.475 119.709 208.208C119.042 208.945 118.89 210.071 118.226 210.831C117.624 211.589 116.348 211.783 115.704 212.517C115.1 213.272 114.834 214.316 114.224 215.068C113.621 215.812 112.406 216.091 111.802 216.845C111.19 217.623 111.472 219.079 110.896 219.84C110.292 220.591 109.837 221.447 109.261 222.227C108.682 223.013 107.71 223.475 107.136 224.26C106.56 225.036 105.49 225.423 104.922 226.217C104.344 226.995 103.56 227.605 103.042 228.403C102.498 229.204 102.964 230.7 102.445 231.489C101.902 232.269 101.229 232.975 100.72 233.763C100.144 234.548 98.929 234.896 98.4117 235.676C97.8997 236.503 98.389 237.904 97.873 238.708C97.6357 239.149 97.0211 239.399 96.4771 239.645C96.3371 240.057 96.1424 240.452 95.8784 240.804C95.6677 241.2 95.3864 241.521 95.1224 241.867C95.1237 242.325 95.1251 242.784 94.8517 243.057C94.5437 243.445 93.9331 243.544 93.3264 243.677C92.7797 244.165 92.2664 244.589 91.653 244.992C90.837 245.477 90.1384 246.305 89.2571 246.615C88.3491 246.917 87.2824 246.635 86.3677 246.735C85.3944 246.839 84.3584 247.467 83.3557 247.333C83.0224 247.295 82.7117 247.068 82.4064 246.84C81.9504 246.869 81.493 246.888 81.133 246.755C80.4597 246.557 79.8171 246.181 79.2051 245.817C78.9091 245.755 78.5997 245.695 78.3864 245.548C77.5624 245.053 76.8904 244.287 76.2224 243.613C75.425 242.891 74.509 242.147 73.8944 241.221C73.4037 240.433 73.5224 239.304 73.1851 238.407C72.9077 237.515 72.6291 236.6 72.5357 235.64C72.4397 234.695 72.2197 233.692 72.3424 232.704C72.4544 231.941 72.3384 231.912 72.4517 231.135C72.3611 230.864 72.3611 230.589 72.4491 230.363C72.5144 230.133 72.661 229.965 72.817 229.805C72.877 229.645 72.905 229.459 72.9037 229.233C73.109 227.873 73.1451 227.873 73.3491 226.539C73.5037 225.164 73.3438 225.139 73.4984 223.783C73.6704 222.591 73.913 222.619 74.0611 221.444C74.2077 220.199 74.2451 220.199 74.4211 218.94C74.5664 217.581 74.2838 217.548 74.4984 216.207C74.6451 214.991 74.3117 214.948 74.489 213.731C74.6704 212.435 75.1544 212.493 75.3331 211.163C75.509 209.736 75.877 209.795 76.053 208.376C76.233 207.085 76.1037 207.052 76.2851 205.756C76.4544 204.375 76.4331 204.376 76.6077 202.941C76.7851 201.629 77.001 201.663 77.145 200.357C77.3317 198.965 76.4117 198.848 76.5877 197.429C76.7651 196.111 77.0957 196.12 77.2504 194.828C77.425 193.377 78.0344 193.471 78.209 192.04C78.3877 190.693 77.5011 190.58 77.6824 189.208C77.8531 187.945 78.377 188.017 78.5224 186.724C78.7077 185.341 78.4571 185.307 78.6318 183.907C78.8171 182.597 79.3931 182.675 79.5664 181.347C79.7104 179.916 79.4677 179.9 79.6824 178.453C79.8584 177.097 79.7971 177.099 79.9771 175.723C80.1517 174.432 80.217 174.448 80.389 173.144C80.5757 171.721 80.7491 171.739 80.9571 170.32C81.1077 168.983 80.4331 168.896 80.6184 167.529C80.7864 166.225 81.2451 166.301 81.4264 164.987C81.6037 163.572 81.2664 163.543 81.4384 162.123C81.6544 160.775 82.0744 160.844 82.2584 159.476C82.4317 158.152 82.4117 158.152 82.6077 156.824C82.7877 155.436 82.969 155.453 83.1557 154.035C83.2664 152.685 82.9584 152.619 83.1651 151.268C83.3491 149.943 83.1597 149.927 83.3437 148.601C83.5157 147.192 83.7611 147.199 83.9664 145.783C84.1197 144.415 84.2357 144.415 84.4157 143.04C84.5904 141.688 84.6237 141.688 84.7957 140.359C84.9784 138.911 84.7317 138.888 84.9157 137.468C85.1184 136.072 85.1184 136.072 85.2664 134.664C85.4157 133.295 85.2064 133.279 85.4104 131.912C85.5571 130.587 85.525 130.587 85.701 129.24C85.9077 127.828 85.5717 127.796 85.7504 126.384C85.9304 124.993 86.533 125.084 86.7117 123.684C86.8384 122.344 87.1624 122.353 87.3424 121.036C87.5197 119.588 86.7917 119.5 86.9931 118.061C87.1784 116.647 87.2064 116.647 87.4117 115.235C87.5904 113.86 87.7744 113.893 87.9464 112.504C88.1264 111.163 87.941 111.147 88.1557 109.796C88.3277 108.365 88.301 108.365 88.417 106.919C88.5904 105.517 88.5904 105.517 88.7717 104.101C88.9464 102.741 89.1291 102.759 89.3077 101.385C89.5131 100.032 90.0344 100.109 90.209 98.7521C90.4184 97.3334 90.2664 97.3041 90.473 95.8868C90.6224 94.4668 90.1664 94.3988 90.3397 93.0108C90.545 91.6108 90.6117 91.6201 90.789 90.2708C90.9344 88.9015 91.329 88.9455 91.501 87.6055C91.6864 86.1388 91.6877 86.1774 91.8904 84.7428C92.0717 83.3121 92.0997 83.3108 92.2744 81.9094C92.4584 80.5081 92.4864 80.5081 92.6624 79.1335C92.8731 77.7628 92.1131 77.6895 92.2851 76.3228C92.4637 74.8748 92.9211 74.9215 93.1024 73.4708C93.3077 72.0548 92.8811 72.0268 93.0544 70.5934C93.2304 69.1881 93.753 69.2695 93.9584 67.8681C94.085 67.1201 93.7624 66.2948 93.9851 65.5801C94.2504 64.8361 94.7597 64.1668 95.1277 63.4894C95.553 62.6548 95.9117 61.6775 96.4877 60.9921C97.1251 60.2721 97.889 59.5708 98.609 59.0041C99.3744 58.4535 100.476 58.4748 101.377 58.0921C102.265 57.7108 103.113 57.4015 104.058 57.2281C104.841 57.0921 105.55 57.2401 106.276 57.2375C107.069 57.2348 107.921 56.5681 108.709 56.7094C109.594 56.8801 110.269 57.8654 111.149 58.2255C112.004 58.5854 113.13 58.4881 113.894 59.0321C114.66 59.5934 115.336 60.3228 115.978 61.0681C116.586 61.7815 117.202 62.5988 117.656 63.4508C117.992 64.1134 118.06 64.0868 118.392 64.7428C118.825 65.6121 118.489 65.7921 118.986 66.6748C119.618 67.8868 119.866 67.7521 120.513 68.9508C121.154 70.1641 121.002 70.2708 121.653 71.5161C122.169 72.5588 122.566 72.3375 123.121 73.3641C123.725 74.5081 123.67 74.5401 124.28 75.6774C124.864 76.8814 124.224 77.2348 124.869 78.4348C125.453 79.5241 125.941 79.2495 126.482 80.3575C127.101 81.5175 126.77 81.7108 127.389 82.8948C128.032 84.1628 128.486 83.9188 129.16 85.1868C129.769 86.3481 129.87 86.3015 130.476 87.4708C131.154 88.7148 131.154 88.7148 131.794 89.9615C132.41 91.1428 131.866 91.4081 132.47 92.5881C133.156 93.8348 133.328 93.7748 134.009 95.0161C134.618 96.1868 135.016 95.9708 135.632 97.1588C136.301 98.4388 135.638 98.7895 136.308 100.071C136.928 101.265 137.412 101.02 138.025 102.235C138.641 103.376 138.764 103.315 139.376 104.487C139.989 105.712 140.081 105.655 140.753 106.912C141.365 108.065 140.85 108.312 141.464 109.511C142.137 110.792 142.044 110.837 142.717 112.107C143.366 113.313 143.662 113.161 144.312 114.372C144.952 115.544 144.592 115.712 145.204 116.895C145.854 118.157 146.369 117.872 147.044 119.148C147.684 120.328 147.656 120.361 148.304 121.559C148.909 122.728 148.909 122.728 149.586 123.899C150.205 125.157 150.322 125.065 150.969 126.315C151.676 127.541 151.096 127.813 151.761 129.003C152.353 130.199 152.814 129.971 153.42 131.128C154.061 132.404 153.546 132.669 154.218 133.937C154.838 135.159 155.473 134.839 156.116 136.053C156.724 137.224 156.725 137.235 157.342 138.405C157.893 139.441 157.562 139.883 157.746 140.691C158.476 140.203 159.517 140.199 160.176 139.721C160.996 139.139 161.73 138.375 162.545 137.793C163.248 137.315 163.976 136.86 164.644 136.369C165.373 135.876 166.006 135.311 166.673 134.824C167.412 134.347 167.884 133.529 168.554 133.081C169.466 132.524 170.321 131.981 171.172 131.428C171.896 130.951 173.146 131.36 173.85 130.915C174.606 130.441 175.336 130.013 176.037 129.563C176.758 129.109 177.121 128.071 177.853 127.625C178.702 127.091 179.278 126.023 180.158 125.483C180.894 125.056 182.2 125.604 182.958 125.152C183.688 124.727 183.928 123.437 184.621 123.005C185.538 122.497 186.813 122.656 187.694 122.148C188.452 121.705 188.881 120.761 189.672 120.339C190.094 120.059 190.694 119.965 191.252 119.843C191.028 118.608 191.13 118.503 190.908 117.164C190.624 115.776 190.446 115.813 190.216 114.44C189.98 112.968 190.341 112.884 190.061 111.44C189.837 110.011 189.513 110.041 189.254 108.628C189.132 107.82 189.341 107.047 189.338 106.272C189.334 105.332 189.397 104.413 189.608 103.527C189.809 102.6 189.936 101.656 190.296 100.816C190.774 99.8428 191.656 99.1708 192.382 98.3414C192.988 97.6228 193.594 96.9841 194.358 96.4174C195.114 95.8535 195.848 95.3041 196.732 94.9135C197.606 94.5414 198.546 94.2695 199.522 94.0988C200.31 93.9441 201.044 93.9415 201.837 93.9375C202.814 93.9348 203.693 94.0708 204.552 94.2588C205.492 94.4841 206.32 94.7868 207.145 95.2268C208.116 95.6801 208.973 96.2668 209.793 96.9868C210.493 97.5841 211.502 97.9321 212.085 98.6895C212.666 99.4508 212.881 100.453 213.253 101.337C213.648 102.216 214.232 103.101 214.392 104.088C214.482 104.727 214.15 104.804 214.27 105.424C214.456 106.552 214.706 106.643 214.92 107.489C215.285 107.401 215.62 107.295 215.96 107.143C216.86 106.68 217.77 106.141 218.689 105.719C219.477 105.329 220.174 104.704 220.937 104.364C221.728 103.983 222.238 103.021 223.03 102.652C223.79 102.3 224.858 102.436 225.584 102.063C226.408 101.709 227.56 102.151 228.325 101.789C229.3 101.384 229.681 99.7534 230.665 99.3348C231.446 98.9708 232.484 99.1748 233.276 98.8241C234.064 98.5028 234.98 98.4321 235.764 98.1121C236.585 97.7801 237.322 97.2068 238.105 96.8841C239.045 96.4854 240.208 96.4814 241.124 96.1148C242.12 95.7161 242.938 94.9974 243.918 94.6081C244.889 94.2161 245.801 93.7055 246.77 93.3361C247.738 92.9535 248.656 92.4468 249.624 92.0894C250.592 91.7081 251.577 91.2455 252.578 90.8801C253.522 90.5241 254.525 90.2588 255.518 89.8921C256.501 89.5348 257.624 89.5815 258.596 89.2255C259.602 88.8881 260.665 88.8535 261.668 88.4988C262.67 88.1481 263.336 86.8921 264.312 86.5681C265.313 86.2348 266.357 86.0588 267.35 85.7375C268.35 85.4148 269.392 85.2415 270.396 84.9321C271.4 84.5948 272.457 84.4935 273.438 84.1628C274.44 83.8561 275.504 83.6801 276.476 83.3734C277.48 83.0708 278.118 81.6321 279.142 81.3201C280.156 81.0148 281.472 81.7988 282.473 81.4921C283.47 81.1868 284.13 79.8548 285.14 79.5681C286.172 79.2561 287.333 79.5241 288.369 79.2375C289.373 78.9375 290.218 78.1135 291.222 77.8228C292.225 77.5601 293.412 77.8441 294.417 77.5655C295.45 77.2895 296.297 76.5201 297.305 76.2441C298.34 75.9948 299.621 76.7641 300.624 76.5201C301.654 76.2721 302.42 75.0201 303.449 74.7921C304.456 74.5388 305.702 75.1454 306.706 74.8841C307.71 74.6401 308.592 73.6775 309.596 73.4254C310.6 73.1961 311.821 73.8535 312.856 73.6201C313.89 73.3988 314.825 72.6921 315.834 72.4615C316.652 72.2721 317.538 72.1454 318.366 71.9801C318.934 71.7321 319.542 71.4748 320.153 71.2988H320.178C320.726 70.9615 321.25 70.6161 321.824 70.5041C322.849 70.2895 323.922 70.1748 324.984 69.9708C325.442 69.8655 325.742 69.6948 325.902 69.6641C326.292 69.6068 326.749 69.7214 327.176 69.8134C327.396 69.7188 327.632 69.6868 327.856 69.6388C328.484 69.5495 329.157 69.6508 329.766 69.6801C330.1 69.6628 330.345 69.6468 330.649 69.6001C330.766 69.5881 330.861 69.5881 330.981 69.5881C331.774 69.4281 332.534 69.1375 333.293 69.0308C334.21 68.9174 335.088 68.9135 335.913 68.8228C336.949 68.7028 337.921 68.2175 338.924 68.1681C339.929 68.0735 340.933 68.2055 341.874 68.1721C342.884 68.1255 343.858 68.1761 344.83 68.1721C345.35 68.1881 345.922 68.1868 346.469 68.1841C346.926 67.9348 347.353 67.6921 347.842 67.7375C348.6 67.7428 349.402 68.2321 350.188 68.4588C350.402 68.4708 350.62 68.4921 350.792 68.5375C351.836 68.5921 352.954 68.3694 353.997 68.4788C354.786 68.5801 355.613 68.7895 356.316 69.0321C357.258 69.2841 357.989 69.9508 358.78 70.4081C359.361 70.7254 359.944 71.0708 360.46 71.4508C360.738 71.5561 361.006 71.6615 361.19 71.8601C362.016 72.6001 362.994 73.2988 363.606 74.2055C363.822 74.5588 363.822 75.0241 363.824 75.5015C364.069 75.9561 364.321 76.4081 364.498 76.9281C364.838 77.8255 364.94 78.8015 365.06 79.7548C365.15 80.6974 365.346 81.6881 365.252 82.6895C365.196 82.9201 365.137 83.1388 365.074 83.3788C365.016 83.9588 364.985 84.5414 364.868 85.0828C364.564 85.9681 364.3 86.9308 363.78 87.7414C363.328 88.5468 362.506 89.1774 361.904 89.8441C361.137 90.6614 360.417 91.5201 359.509 92.1281C358.9 92.4908 358.266 92.6574 357.564 92.8481C357.349 92.9681 357.132 93.1201 356.824 93.1828C356.802 93.2348 356.738 93.2348 356.614 93.2521L354.181 93.5015L354.004 93.5028C353.913 93.5028 353.82 93.5028 353.725 93.5375C352.874 93.7815 351.936 94.5748 351.081 94.5001L349.652 94.0361C349.441 93.9535 349.226 93.8988 349.002 93.8841C348.221 93.8174 347.454 93.8308 346.665 93.8228C346.206 93.8055 345.652 93.5348 345.172 93.3214C344.89 93.3228 344.622 93.3441 344.318 93.3441C343.954 93.3708 343.589 93.3135 343.197 93.3041C342.669 93.4228 342.069 93.5948 341.521 93.6375C341.086 93.6575 340.696 93.5881 340.268 93.5441C339.814 93.6908 339.39 93.8508 338.968 93.9135C338.078 93.9988 337.198 93.8414 336.256 93.9494C336.01 93.9788 335.733 94.0081 335.432 94.0494C334.918 94.4668 334.338 95.0961 333.668 95.1948C332.729 95.3654 331.749 95.4908 330.718 95.6721C330.322 95.7268 329.93 95.4321 329.93 95.4321C329.59 95.5161 329.192 95.3895 328.802 95.3055C328.584 95.3628 328.372 95.3935 328.19 95.4388C327.672 95.5801 327.181 95.6388 326.672 95.7401C326.358 95.8921 326.057 96.0001 325.757 96.0628C325.453 96.1335 325.209 96.2321 324.93 96.3535C324.541 96.6295 324.112 96.8894 323.662 97.0854C322.934 97.3774 322.113 97.5815 321.41 97.9561C320.652 98.3015 319.95 98.7774 319.252 99.1774C318.588 99.5441 318.017 100.217 317.336 100.663C316.458 101.183 315.641 101.697 314.854 102.299C314.028 102.879 313.154 103.32 312.389 104.001C311.668 104.628 310.9 105.279 310.176 105.988C309.476 106.684 308.757 107.357 308.086 108.117C307.42 108.853 306.993 109.804 306.352 110.597C305.754 111.36 305.142 112.155 304.569 112.979C304.112 113.635 303.565 114.187 303.178 114.837C302.632 115.655 302.146 116.443 301.689 117.272C301.241 118.103 300.573 118.853 300.182 119.683C299.79 120.533 299.553 121.432 299.257 122.304C298.892 123.167 298.706 124.083 298.413 124.953C298.13 125.836 298.08 126.764 297.809 127.661C297.66 128.563 297.54 129.451 297.392 130.353C297.245 131.271 296.582 132.101 296.494 133.015C296.401 134.075 296.377 135.16 296.38 136.239C296.384 137.292 296.569 138.383 296.66 139.452C296.758 140.516 297.285 141.529 297.438 142.571C297.564 143.299 297.386 144.092 297.57 144.823C297.792 145.749 298.398 146.575 298.673 147.449C299.017 148.336 299.201 149.307 299.566 150.157C299.942 151.037 300.308 151.908 300.8 152.76C301.229 153.605 301.565 154.485 302.082 155.304C302.608 156.115 303.196 156.869 303.769 157.659C304.353 158.447 304.782 159.331 305.414 160.06C306.033 160.832 306.889 161.365 307.593 162.077C308.262 162.791 308.728 163.748 309.489 164.416C310.196 165.075 311.014 165.699 311.777 166.327C312.6 166.941 313.674 167.133 314.49 167.743C315.076 168.121 315.565 168.656 316.08 169.028C316.752 169.457 317.369 169.964 318.057 170.351C318.89 170.819 319.776 171.172 320.596 171.585C321.457 171.993 322.401 172.235 323.245 172.592C324.105 172.971 324.929 173.381 325.844 173.696C326.696 173.993 327.644 174.085 328.528 174.305C329.477 174.555 330.294 174.869 331.174 175.065C332.09 175.239 332.974 175.555 333.856 175.676C334.74 175.811 335.654 175.924 336.536 175.972C337.484 176.041 338.37 176.055 339.284 176.051C340.16 176.047 341.052 176.297 341.96 176.24C342.989 176.14 344.03 175.908 345.036 175.724C345.7 175.595 346.428 175.565 347.074 175.445C347.865 175.268 348.593 174.997 349.316 174.867C350.176 174.667 351.029 174.403 351.846 174.169C352.757 174.005 353.485 173.605 354.28 173.389C355.249 173.127 356.222 173.065 357.109 172.788C357.984 172.472 358.805 171.968 359.717 171.651C360.6 171.279 361.605 171.259 362.554 170.84C363.312 170.489 363.976 169.864 364.698 169.456C365.469 169.099 366.162 168.805 366.952 168.593C367.898 168.325 368.818 168.321 369.754 168.245C370.705 168.215 371.641 168.055 372.557 168.219C373.621 168.367 374.689 168.728 375.693 169.165C376.521 169.544 377.281 170.181 378.016 170.753C378.756 171.333 379.538 171.889 380.156 172.632C380.766 173.388 381.264 174.231 381.746 175.112C382.048 175.824 382.388 176.544 382.605 177.283C382.856 178.208 383.313 179.088 383.354 180.017C383.445 180.947 383.149 181.907 383.025 182.82C382.841 183.904 382.636 185.015 382.216 186.025C381.825 186.877 381.316 187.704 380.74 188.448C380.188 189.208 379.489 189.928 378.757 190.539C378.029 191.168 377.002 191.416 376.122 191.861C375.506 192.153 374.996 192.564 374.381 192.855C373.689 193.211 372.9 193.345 372.164 193.689C371.345 194.057 370.622 194.667 369.737 195.021C368.857 195.38 368.004 195.64 367.122 195.94C366.212 196.293 365.332 196.563 364.384 196.839C363.473 197.144 362.658 197.763 361.678 198.008C360.736 198.284 359.644 198.136 358.638 198.413C357.629 198.641 356.661 199.136 355.629 199.352C354.558 199.569 353.53 200.031 352.401 200.249C351.489 200.433 350.485 200.271 349.478 200.46C348.722 200.579 348.018 200.781 347.23 200.892C346.434 200.999 345.609 200.863 344.882 200.952ZM339.526 316.547C339.526 326.293 331.526 333.412 316.14 333.412H282.406V272.547H316.486C324.926 272.547 330.233 274.465 333.793 278.025C335.966 280.199 337.526 283.333 337.526 287.507V287.68C337.526 294.893 333.18 299.333 326.66 301.585C334.486 303.852 339.526 308.025 339.526 316.372V316.547ZM329.726 363.88V372.787H323.166V363.972L314.233 349.252H321.66L326.5 357.827L331.366 349.252H338.66L329.726 363.88ZM324.113 391.227V399.667H319.46V391.319L311.313 378.493H316.766L321.82 387L326.953 378.493H332.246L324.113 391.227ZM311.5 399.667H296.286V378.493H300.94V395.44H311.5V399.667ZM311.713 366.227V366.293C311.713 370.333 308.42 372.787 302.806 372.787H290.673V349.252H302.74C305.7 349.252 307.78 350 309.153 351.372C310.1 352.319 310.673 353.56 310.673 355.173V355.239C310.673 357.96 309.126 359.572 307.033 360.479C309.9 361.425 311.713 363.039 311.713 366.227ZM290.3 382.787H283.86V399.667H279.193V382.787H272.753V378.493H290.3V382.787ZM272.62 360.947C272.62 367.745 267.686 372.787 259.208 372.787H250.273V349.252H259.353C267.753 349.252 272.62 354.092 272.62 360.88V360.947ZM266.766 399.667H262.806L252.541 386.213V399.667H247.953V378.493H252.246L262.166 391.532V378.493H266.766V399.667ZM244.26 372.787H225.166V349.252H244.086V354.799H231.62V358.359H242.913V363.507H231.62V367.239H244.26V372.787ZM241.38 399.667H225.26V378.493H241.233V382.639H229.886V386.932H239.874V391.079H229.886V395.519H241.38V399.667ZM194.926 306.12V272.547H215.62V305.852C215.62 313.412 219.541 316.639 225.02 316.639C230.486 316.639 234.406 313.68 234.406 306.293V272.547H255.1V305.68C255.1 326.465 243.006 334.639 224.846 334.639C206.66 334.639 194.926 326.293 194.926 306.12ZM219.62 354.972H212.566V372.787H206.046V354.972H198.98V349.252H219.62V354.972ZM218.7 389.079C218.7 395.039 214.1 399.667 207.446 399.667H199.193V378.493H207.446C214.1 378.493 218.7 383.067 218.7 389.025V389.079ZM187.553 372.787L182.82 365.652H179.966V372.787H173.446V349.252H184.566C188.166 349.252 190.646 350.199 192.233 351.812C193.606 353.16 194.313 354.972 194.313 357.293V357.359C194.313 360.947 192.393 363.333 189.473 364.585L195.086 372.787H187.553ZM191.686 399.667H187.726L177.473 386.213V399.667H172.874V378.493H177.166L187.086 391.532V378.493H191.686V399.667ZM171.886 333.412H122.926V272.547H143.273V316.025H171.886V333.412ZM167.353 361.013C167.353 367.773 161.913 373.252 154.66 373.252C147.393 373.252 142.02 367.84 142.02 361.079V361.013C142.02 354.265 147.46 348.787 154.726 348.787C161.98 348.787 167.353 354.199 167.353 360.947V361.013ZM166.313 399.667H150.18V378.493H166.153V382.639H154.806V386.932H164.793V391.079H154.806V395.519H166.313V399.667ZM144.313 385.88C144.313 390.773 140.5 393.319 135.753 393.319H132.22V399.667H127.553V378.493H136.208C141.26 378.493 144.313 381.493 144.313 385.812V385.88ZM124.033 366.053V372.787H117.513V349.252H127.593C133.553 349.252 137.38 352.319 137.38 357.519V357.585C137.38 363.132 133.113 366.053 127.26 366.053H124.033ZM120.993 399.667H104.874V378.493H120.846V382.639H109.5V386.932H119.486V391.079H109.5V395.519H120.993V399.667ZM98.7264 366.053V372.787H92.2077V349.252H102.286C108.233 349.252 112.073 352.319 112.073 357.519V357.585C112.073 363.132 107.806 366.053 101.953 366.053H98.7264ZM98.3131 389.079C98.3131 395.039 93.7131 399.667 87.0597 399.667H78.7931V378.493H87.0597C93.7131 378.493 98.3131 383.067 98.3131 389.025V389.079ZM63.7397 362.465V349.252H70.3664V362.333C70.3664 365.72 72.0731 367.333 74.6997 367.333C77.313 367.333 79.0331 365.787 79.0331 362.493V349.252H85.6464V362.293C85.6464 369.893 81.313 373.213 74.633 373.213C67.9397 373.213 63.7397 369.827 63.7397 362.465ZM71.2997 399.667H67.3264L57.073 386.213V399.667H52.4864V378.493H56.7797L66.6997 391.532V378.493H71.2997V399.667ZM37.6597 369.28L41.2864 364.947C43.6064 366.799 46.1931 367.773 48.9131 367.773C50.6597 367.773 51.6064 367.173 51.6064 366.16V366.092C51.6064 365.12 50.8331 364.585 47.6464 363.84C42.6331 362.692 38.7664 361.293 38.7664 356.453V356.387C38.7664 352.013 42.2331 348.852 47.8744 348.852C51.8744 348.852 55.0064 349.932 57.553 351.972L54.2997 356.585C52.1397 355.067 49.7931 354.265 47.7131 354.265C46.1264 354.265 45.353 354.932 45.353 355.773V355.84C45.353 356.919 46.1664 357.387 49.4197 358.132C54.833 359.305 58.1931 361.053 58.1931 365.453V365.519C58.1931 370.333 54.393 373.185 48.6864 373.185C44.513 373.185 40.5531 371.88 37.6597 369.28ZM44.7664 399.667H40.1131V378.493H44.7664V399.667ZM37.8064 302.985C37.8064 284.812 51.9664 271.239 70.1397 271.239C83.541 271.239 92.5797 277.773 97.7131 287.067L80.9264 296.893C78.6731 292.547 75.4464 289.507 69.8864 289.507C63.0197 289.507 58.4997 295.507 58.4997 302.812V302.985C58.4997 310.893 63.193 316.465 69.8864 316.465C75.6197 316.465 78.8464 313.333 81.3664 308.812L98.1397 318.293C93.0197 327.333 84.4997 334.72 69.3664 334.72C52.4997 334.72 37.8064 322.025 37.8064 303.16V302.985ZM416.393 279.773L406.486 293.507C400.753 289.333 393.874 287.507 388.22 287.507C385.18 287.507 383.793 288.547 383.793 290.025V290.199C383.793 291.852 385.446 292.893 391.874 294.12C407.446 296.985 417.874 301.507 417.874 313.759V313.947C417.874 326.72 407.353 334.547 391.006 334.547C378.66 334.547 367.526 331.067 359.793 324.293L370.66 311.333C377.273 316.372 384.833 318.465 391.966 318.465C395.62 318.465 397.18 317.507 397.18 315.852V315.68C397.18 313.947 395.273 312.985 388.753 311.68C375.1 308.893 363.1 304.985 363.1 292.12V291.947C363.1 280.372 372.14 271.425 388.926 271.425C400.66 271.425 409.353 274.199 416.393 279.773ZM0.633057 0.00012207V460.465L227.846 564.213L455.046 460.465V0.00012207H0.633057Z" fill="#231F20"/>
</svg>
